<svg xmlns="http://www.w3.org/2000/svg" width="144" height="144" viewBox="0 0 144 144"><title>edexAsset 2logo</title><g id="Layer_2" data-name="Layer 2"><g id="Layer_1-2" data-name="Layer 1"><path d="M143.6,64.2c0-.4-.1-.7-.1-1A72.3,72.3,0,1,0,144,72,66.8,66.8,0,0,0,143.6,64.2ZM80.8,131V106H66v25.3A59.7,59.7,0,0,1,12.8,79.1H37.1V64.3H12.9A59.7,59.7,0,0,1,66,12.7V37.5H80.8V13A59.8,59.8,0,0,1,131,63.2H108.2V78h23.1A59.7,59.7,0,0,1,80.8,131Z"/><path d="M143.6,63.2v1c0-.4-.1-.7-.1-1Z"/><circle cx="73.4" cy="70.6" r="11.2"/></g></g></svg>