<svg xmlns="http://www.w3.org/2000/svg" width="140" height="112.8" viewBox="0 0 140 112.8"><title>edexAsset 3flag</title><g id="Layer_2" data-name="Layer 2"><g id="Layer_1-2" data-name="Layer 1"><path d="M16.4,31.1a2.3,2.3,0,0,0,2.1-2.5V5H42.4a2.5,2.5,0,0,0,2.4-2.5A2.6,2.6,0,0,0,42.2,0H13.6V29.1A2.5,2.5,0,0,0,16.4,31.1Z"/><path d="M69.8,95.2a2.7,2.7,0,0,0-2.3,2.6v12.4a2.7,2.7,0,0,0,2.3,2.6h.4a2.3,2.3,0,0,0,2.3-2.4V97.5A2.5,2.5,0,0,0,69.8,95.2Z"/><path d="M97.8,5h23.7V28.7a2.5,2.5,0,1,0,5-.1V0H97.9a2.6,2.6,0,0,0-2.6,2.3h0A2.5,2.5,0,0,0,97.8,5Z"/><path d="M123.8,81.7a2.5,2.5,0,0,0-2.3,2.5v23.7h-24a2.4,2.4,0,0,0-2.2,2.7,2.6,2.6,0,0,0,2.6,2.2h28.5v-29A2.3,2.3,0,0,0,123.8,81.7Z"/><path d="M70.1,17.6A2.5,2.5,0,0,0,72.5,15V2.6A2.6,2.6,0,0,0,70.2,0H70a2.5,2.5,0,0,0-2.5,2.5V15.1A2.6,2.6,0,0,0,70.1,17.6Z"/><path d="M42.4,107.9H18.6v-24a2.3,2.3,0,0,0-2.7-2.2,2.5,2.5,0,0,0-2.3,2.5v28.6H42.2a2.7,2.7,0,0,0,2.7-2.3h0A2.5,2.5,0,0,0,42.4,107.9Z"/><path d="M69,45.9a9.7,9.7,0,0,0-8.7,8.7,9.8,9.8,0,1,0,19.5,2,8.8,8.8,0,0,0,0-2.3A9.6,9.6,0,0,0,69,45.9Z"/><path d="M.1,54.8C0,55,0,55,.1,55c31.1,49.4,111.7,44.1,139.9-.2C94.3-.1,23.7,21.2.1,54.8ZM70,84.8a29.1,29.1,0,0,1,0-58.2h.2A29.1,29.1,0,0,1,70,84.8Z"/></g></g></svg>