<svg xmlns="http://www.w3.org/2000/svg" width="141.5" height="92.8" viewBox="0 0 141.5 92.8"><title>edexAsset 5flag</title><g id="Layer_2" data-name="Layer 2"><g id="Layer_1-2" data-name="Layer 1"><path d="M85.9,45.1c-1.4,0-2.4,1.3-2.4,3.4s1,3.5,2.4,3.5,2.4-1.4,2.4-3.5S87.4,45.1,85.9,45.1Z"/><ellipse cx="41.8" cy="50.3" rx="2.7" ry="2.5"/><path d="M41.8,44a2.2,2.2,0,1,0,0-4.4,2.2,2.2,0,1,0,0,4.4Z"/><path d="M141.5,76.1,124.1,52.4l1.4,12.4L116.6,61A46.3,46.3,0,0,0,31.5,25h-.1l-5.3-2.2-5.4-11L9,6.9l6.5,15.6L0,30.1l10.9,4.6,12.4-5.2,5.3,2.3a46.4,46.4,0,0,0,85.2,36l9.3,3.9L111.5,80ZM41.8,56.6c-5.5,0-8.9-2.3-8.9-5.9s2.1-4.7,5-5h0A4.9,4.9,0,0,1,33.7,41c0-3,3.3-5.3,8.1-5.3s8,2.3,8,5.3a4.9,4.9,0,0,1-4.2,4.6h0c3,.3,5,2.3,5,5S47.1,56.6,41.8,56.6Zm28.3-.5-4.3-7.3-1.6,2.1v5.2H58.4V36.3h5.8v8.4h.1l6.2-8.4h6.1L70,45.1l6.9,11Zm18.1.2a4.6,4.6,0,0,1-4.5-2.8h-.2v7.4H77.9V41h5.7v2.7h.1a4.5,4.5,0,0,1,4.5-3c3.8,0,5.9,2.8,5.9,7.8S92,56.3,88.2,56.3Zm23.3-.2h-5.7V47.6c0-1.5-.7-2.4-2.1-2.4a2.2,2.2,0,0,0-2.2,2.4v8.5H95.9V36.3h5.5v7.6h.1a4.7,4.7,0,0,1,4.7-3.3c3.4,0,5.3,2.2,5.3,5.8Z"/></g></g></svg>