<svg xmlns="http://www.w3.org/2000/svg" width="104" height="142.1" viewBox="0 0 104 142.1"><title>edexAsset 10book</title><g id="Layer_2" data-name="Layer 2"><g id="Layer_1-2" data-name="Layer 1"><g id="Layer_2-2" data-name="Layer 2"><g id="Layer_1-2-2" data-name="Layer 1-2"><g id="Layer_2-2-2" data-name="Layer 2-2"><g id="Layer_1-2-2-2" data-name="Layer 1-2-2"><path d="M104,52.1A52,52,0,1,0,28.9,98.6H24.4v8.2C51.7,118.2,46,142.1,46,142.1H59.9c-2-29.7,22.4-36.8,22.4-36.8V98.7H75.2A52.2,52.2,0,0,0,104,52.1ZM77.9,63.5a3.6,3.6,0,0,1-3.5,3.6,3.8,3.8,0,0,1-3.7-3.6,3.7,3.7,0,0,1,3.7-3.6A3.6,3.6,0,0,1,78,63.5ZM70.6,48a3.6,3.6,0,1,1-3.5,3.5A3.6,3.6,0,0,1,70.6,48Zm.1,40.6a3.6,3.6,0,0,1-3.4,3.7h-.1a3.7,3.7,0,0,1-4.2-3,3.6,3.6,0,0,1,3-4.2h1.2a3.5,3.5,0,0,1,3.5,3.5ZM67.2,74.3A3.9,3.9,0,0,1,63.5,78,3.7,3.7,0,0,1,60,74.3a3.5,3.5,0,0,1,3.5-3.5A3.7,3.7,0,0,1,67.2,74.3ZM60,58.3a3.6,3.6,0,1,1-3.6,3.6h0A3.6,3.6,0,0,1,60,58.3ZM56.4,85.1a3.6,3.6,0,1,1-3.6-3.6A3.6,3.6,0,0,1,56.4,85.1ZM49.3,68.4a3.6,3.6,0,1,1-3.5,3.5,3.6,3.6,0,0,1,3.5-3.5ZM78,81.4a3.6,3.6,0,0,1,0-7.1h0a3.6,3.6,0,1,1,0,7.1Zm3.5-28.6a3.6,3.6,0,0,1,3.6-3.6,3.6,3.6,0,0,1,3.6,3.6,3.5,3.5,0,0,1-3.6,3.5h0a3.6,3.6,0,0,1-3.6-3.5Zm3.6,14.3a3.6,3.6,0,0,1,3.7-3.5,3.5,3.5,0,0,1,3.5,3.5,3.6,3.6,0,0,1-7.2.3v-.2Z"/></g></g></g></g></g></g></svg>