<svg xmlns="http://www.w3.org/2000/svg" width="139.7" height="135.5" viewBox="0 0 139.7 135.5"><title>edexAsset 2flag</title><g id="Layer_2" data-name="Layer 2"><g id="Layer_1-2" data-name="Layer 1"><path d="M69.4,114h1a1.6,1.6,0,0,0,1.4-1.7V1.7c0-.1.1-.1.1-.2A1.6,1.6,0,0,0,70.3,0h-1a1.5,1.5,0,0,0-1.4,1.7V112.3h0A1.6,1.6,0,0,0,69.4,114Z"/><path d="M77.3,36.8a11.6,11.6,0,0,0,12.4.8,72.7,72.7,0,0,0,8.9-5.4c8.1-5.3,15.1-5.1,22.6.6l1.6,1a1.3,1.3,0,0,0,1.2.1c.3-.2.5-.5.4-.7-2-4.9-2.9-8.6-6.4-14.3s-9-9.3-16.4-8.4a29.3,29.3,0,0,1-23-7.2,31.5,31.5,0,0,0-2.9-2.2C75,.8,74,1,74,1.7c0,10.3.1,19.6-.1,28.8A7,7,0,0,0,77.3,36.8Z"/><path d="M84.5,93.5a1.9,1.9,0,0,0-1.9,1.8v.2a1.6,1.6,0,0,0,1.6,1.6c25.9,1.7,45.1,6.5,45.1,15.1s-26.4,15.4-59.1,15.4-59.1-8.2-59.1-15.4,19.1-13.4,45-15.1h.2a1.7,1.7,0,0,0,1.5-1.8h0a1.9,1.9,0,0,0-1.9-1.7C24,95.5,0,102.6,0,114.3s31.3,21.2,69.8,21.2,69.9-11,69.9-21.2S116,95.6,84.5,93.5Z"/></g></g></svg>