<?xml version="1.0" encoding="utf-8"?>
<!-- Generator: Adobe Illustrator 22.1.0, SVG Export Plug-In . SVG Version: 6.00 Build 0)  -->
<svg version="1.1" id="Layer_1" xmlns="http://www.w3.org/2000/svg" xmlns:xlink="http://www.w3.org/1999/xlink" x="0px" y="0px"
	 viewBox="0 0 484 484" style="enable-background:new 0 0 484 484;" xml:space="preserve">
<style type="text/css">
	.st0{fill:#FFFFFF;}
</style>
<title>edexAsset 1insta</title>
<g>
	<path class="st0" d="M271.8,269.7c-16,15.3-44.3,15.4-60.5-0.8c-3.8-3.8-7.9-7.2-12-10.9l-81.7,74.9l0.2,0.5h249.1L284.7,258
		C280.3,262,276,265.7,271.8,269.7z"/>
	<path class="st0" d="M221.4,246.7c4.4,3.8,8.9,7.3,13.7,10.5c4.5,3.2,9.3,3.1,13.9,0c4-2.6,7.8-5.5,11.4-8.6
		c32.9-29.9,65.8-59.9,98.5-90l8.7-8H116.5c0.3,0.4,0.7,0.8,1.1,1.1L221.4,246.7z"/>
	<polygon class="st0" points="102.8,168.7 102.8,319.3 184.8,242.9 	"/>
	<polygon class="st0" points="381.3,319.5 381.3,168.5 299.1,242.9 	"/>
	<path class="st0" d="M374.9,0H109.1C48.8,0,0,48.8,0,109.1v265.8C0,435.2,48.8,484,109.1,484h265.8c60.3,0,109.1-48.8,109.1-109.1
		V109.1C484,48.8,435.2,0,374.9,0z M401.6,325.2c0,14.4-9,25.6-22.6,28.2c-1.9,0.2-3.9,0.3-5.8,0.3c-87.6,0-175.2,0-262.7,0.1
		c-14.3,0-25.7-10.1-27.7-23c-0.3-2-0.4-4.1-0.4-6.1c0-55.2,0.1-110.3,0-165.5c-0.1-14.9,9.3-24.7,18.2-27.4c3.4-1,7-1.4,10.5-1.4
		l131-0.1c43.8,0,87.6,0.1,131.5-0.1c13.1-0.2,24.6,8.9,27.3,21.7c0.5,2.3,0.7,4.6,0.7,7C401.7,214.3,401.7,269.7,401.6,325.2z"/>
</g>
</svg>
