<?xml version="1.0" encoding="utf-8"?>
<!-- Generator: Adobe Illustrator 22.1.0, SVG Export Plug-In . SVG Version: 6.00 Build 0)  -->
<svg version="1.1" id="Layer_1" xmlns="http://www.w3.org/2000/svg" xmlns:xlink="http://www.w3.org/1999/xlink" x="0px" y="0px"
	 viewBox="0 0 484 484" style="enable-background:new 0 0 484 484;" xml:space="preserve">
<style type="text/css">
	.st0{fill:#FFFFFF;}
</style>
<title>edexAsset 3vimeo</title>
<g id="Layer_2_1_">
	<g id="Layer_1-2">
		<path class="st0" d="M374.9,0H109.1C48.9-0.1,0.1,48.7,0,108.9c0,0.1,0,0.1,0,0.2v265.8c-0.1,60.2,48.7,109,108.9,109.1
			c0.1,0,0.1,0,0.2,0h265.8c60.2,0.1,109-48.7,109.1-108.9c0-0.1,0-0.1,0-0.2V109.1C484.1,48.9,435.3,0.1,375.1,0
			C375,0,375,0,374.9,0z M372.7,227c-27.2,47.9-59,92.3-101.8,127.7c-9,7.4-19.2,13.4-30,17.7c-22.4,9.3-39.1,2.8-52-17.8
			c-9.4-15-14.5-31.5-19.1-48.3c-7.2-26.8-14.2-53.6-22.4-80c-3.7-11.7-9-22.9-15.5-33.3c-5.9-9.4-10.1-9.3-19.7-3.6
			c-5.3,3.1-10.5,6.5-15.6,9.7c-1.2-0.7-1.4-0.8-1.5-1c-15.7-21.3-16.7-13.5,2.3-30.4s37.5-31.5,56.7-46.7
			c7.3-5.7,16.5-8.5,25.8-7.7c17.1,1.4,26.4,12.5,31.1,27.1s6.6,28.9,9.6,43.5c4.7,22.6,8.8,45.4,13.9,67.9
			c1.8,7.6,5.4,15.1,9.1,22.1s9.6,8.4,16.5,3.2c2.6-1.9,4.9-4.1,6.9-6.6c13.2-16.1,24.3-33.5,31.6-52.9c2.8-7.6,3.3-16.5,3.3-24.8
			s-6.8-15.4-16-15.3s-17.2,1.4-25.5,2.1c11.1-41.4,41.4-73.1,87.1-69.9c30,2.1,39.7,20.9,42.4,40.9
			C393.5,178.1,386.1,203.5,372.7,227L372.7,227z"/>
	</g>
</g>
</svg>
