<?xml version="1.0" encoding="utf-8"?>
<!-- Generator: Adobe Illustrator 22.1.0, SVG Export Plug-In . SVG Version: 6.00 Build 0)  -->
<svg version="1.1" id="Layer_1" xmlns="http://www.w3.org/2000/svg" xmlns:xlink="http://www.w3.org/1999/xlink" x="0px" y="0px"
	 viewBox="0 0 160.2 132.3" style="enable-background:new 0 0 160.2 132.3;" xml:space="preserve">
<style type="text/css">
	.st0{fill:#FFFFFF;}
</style>
<title>edexAsset 1arrow</title>
<g id="Layer_2_1_">
	<g id="Layer_1-2">
		<polygon class="st0" points="160.2,66.2 160.2,66.2 94.1,132.3 80.5,118.7 123.5,75.8 0,75.8 0,56.5 123.5,56.5 80.5,13.6 94.1,0 
			160.2,66.1 		"/>
	</g>
</g>
<g id="Layer_2_2_">
	<g id="Layer_1-2_1_">
		<polygon class="st0" points="527.5,-16.6 527.5,-16.6 461.4,-82.7 475,-96.3 517.9,-53.3 518,-176.8 537.3,-176.7 537.2,-53.2 
			580.1,-96.2 593.7,-82.6 527.6,-16.5 		"/>
	</g>
</g>
<g>
	<path class="st0" d="M-592.8-352.9c2-0.3,4.3-0.5,6.9-0.5c4.7,0,8,1.1,10.2,3.1c2.2,2.1,3.6,5,3.6,9.1c0,4.1-1.3,7.5-3.6,9.8
		c-2.4,2.4-6.3,3.6-11.2,3.6c-2.3,0-4.3-0.1-5.9-0.3V-352.9z M-589.6-330.6c0.8,0.1,2,0.2,3.3,0.2c7,0,10.7-3.9,10.7-10.7
		c0-6-3.3-9.7-10.2-9.7c-1.7,0-3,0.1-3.8,0.3V-330.6z"/>
	<path class="st0" d="M-546.3-340.9c0,8.7-5.3,13.3-11.7,13.3c-6.7,0-11.3-5.2-11.3-12.8c0-8,5-13.3,11.7-13.3
		C-550.8-353.7-546.3-348.4-546.3-340.9z M-565.9-340.5c0,5.4,2.9,10.2,8,10.2c5.2,0,8.1-4.8,8.1-10.5c0-5-2.6-10.3-8-10.3
		C-563.2-351-565.9-346-565.9-340.5z"/>
	<path class="st0" d="M-542.1-352.9c1.6-0.3,4-0.5,6.3-0.5c3.5,0,5.7,0.6,7.3,2.1c1.3,1.1,2,2.8,2,4.8c0,3.3-2.1,5.5-4.8,6.4v0.1
		c1.9,0.7,3.1,2.5,3.7,5.1c0.8,3.5,1.4,6,1.9,6.9h-3.4c-0.4-0.7-1-2.9-1.7-6c-0.7-3.5-2.1-4.8-5.1-4.9h-3.1v10.9h-3.3V-352.9z
		 M-538.9-341.4h3.3c3.5,0,5.7-1.9,5.7-4.8c0-3.3-2.4-4.7-5.8-4.7c-1.6,0-2.7,0.1-3.2,0.3V-341.4z"/>
	<path class="st0" d="M-522.4-332c1.5,0.9,3.6,1.6,5.8,1.6c3.3,0,5.3-1.8,5.3-4.3c0-2.4-1.3-3.7-4.8-5c-4.1-1.5-6.7-3.6-6.7-7.1
		c0-3.9,3.3-6.9,8.2-6.9c2.6,0,4.5,0.6,5.6,1.2l-0.9,2.7c-0.8-0.4-2.5-1.2-4.8-1.2c-3.4,0-4.8,2.1-4.8,3.8c0,2.4,1.5,3.5,5,4.9
		c4.3,1.6,6.4,3.7,6.4,7.4c0,3.9-2.9,7.3-8.8,7.3c-2.4,0-5.1-0.7-6.4-1.6L-522.4-332z"/>
	<path class="st0" d="M-490.5-339.9h-9.8v9.1h10.9v2.7h-14.2v-25.2h13.6v2.7h-10.4v8h9.8V-339.9z"/>
	<path class="st0" d="M-479.4-328v-10.7l-8-14.5h3.7l3.6,7c1,1.9,1.7,3.4,2.5,5.2h0.1c0.7-1.6,1.6-3.3,2.5-5.2l3.6-7h3.7l-8.5,14.5
		v10.7H-479.4z"/>
	<path class="st0" d="M-456.8-352.9c2-0.3,4.3-0.5,6.9-0.5c4.7,0,8,1.1,10.2,3.1c2.2,2.1,3.6,5,3.6,9.1c0,4.1-1.3,7.5-3.6,9.8
		c-2.4,2.4-6.3,3.6-11.2,3.6c-2.3,0-4.3-0.1-5.9-0.3V-352.9z M-453.6-330.6c0.8,0.1,2,0.2,3.3,0.2c7,0,10.7-3.9,10.7-10.7
		c0-6-3.3-9.7-10.2-9.7c-1.7,0-3,0.1-3.8,0.3V-330.6z"/>
	<path class="st0" d="M-418.8-339.9h-9.8v9.1h10.9v2.7h-14.2v-25.2h13.6v2.7h-10.4v8h9.8V-339.9z"/>
	<path class="st0" d="M-413.9-332c1.5,0.9,3.6,1.6,5.8,1.6c3.3,0,5.3-1.8,5.3-4.3c0-2.4-1.3-3.7-4.8-5c-4.1-1.5-6.7-3.6-6.7-7.1
		c0-3.9,3.3-6.9,8.2-6.9c2.6,0,4.5,0.6,5.6,1.2l-0.9,2.7c-0.8-0.4-2.5-1.2-4.8-1.2c-3.4,0-4.8,2.1-4.8,3.8c0,2.4,1.5,3.5,5,4.9
		c4.3,1.6,6.4,3.7,6.4,7.4c0,3.9-2.9,7.3-8.8,7.3c-2.4,0-5.1-0.7-6.4-1.6L-413.9-332z"/>
	<path class="st0" d="M-391.8-353.3v25.2h-3.3v-25.2H-391.8z"/>
	<path class="st0" d="M-366.9-329.2c-1.5,0.5-4.3,1.4-7.7,1.4c-3.8,0-7-1-9.4-3.3c-2.2-2.1-3.5-5.5-3.5-9.4c0-7.5,5.2-13,13.7-13
		c2.9,0,5.2,0.6,6.3,1.2l-0.8,2.7c-1.3-0.6-3-1.1-5.6-1.1c-6.1,0-10.1,3.8-10.1,10.1c0,6.4,3.9,10.2,9.7,10.2c2.1,0,3.6-0.3,4.3-0.7
		v-7.5h-5.1v-2.6h8.3V-329.2z"/>
	<path class="st0" d="M-361.9-328v-25.2h3.6l8.1,12.8c1.9,3,3.3,5.6,4.5,8.2l0.1,0c-0.3-3.4-0.4-6.4-0.4-10.4v-10.6h3.1v25.2h-3.3
		l-8-12.8c-1.8-2.8-3.4-5.7-4.7-8.4l-0.1,0c0.2,3.2,0.3,6.2,0.3,10.4v10.8H-361.9z"/>
	<path class="st0" d="M-337.7-332c1.5,0.9,3.6,1.6,5.8,1.6c3.3,0,5.3-1.8,5.3-4.3c0-2.4-1.3-3.7-4.8-5c-4.1-1.5-6.7-3.6-6.7-7.1
		c0-3.9,3.3-6.9,8.2-6.9c2.6,0,4.5,0.6,5.6,1.2l-0.9,2.7c-0.8-0.4-2.5-1.2-4.8-1.2c-3.4,0-4.8,2.1-4.8,3.8c0,2.4,1.5,3.5,5,4.9
		c4.3,1.6,6.4,3.7,6.4,7.4c0,3.9-2.9,7.3-8.8,7.3c-2.4,0-5.1-0.7-6.4-1.6L-337.7-332z"/>
</g>
<g>
	<g>
		<path class="st0" d="M-475.8-371.1v-65.1h-20.9c-40.5,2.6-36.4,53-2.9,54.5h9.3v-12.1h-3.7c-13.6,0-20.4-5.7-20.4-17.1
			c0-10.7,6.7-16,20-16h7.9v55.9H-475.8z"/>
		<path class="st0" d="M-493.6-449.5c-13.3,0-23.8,3-31.3,9.1c-9,7.2-13.4,17.1-13.4,29.5c0,11.9,3.8,21.6,11.5,29.1
			c7.7,7.5,17.5,11.3,29.6,11.3c1.4,0,3.7-0.1,6.9-0.2v-7.8h-10.4c-41-3.6-34.7-60.8,4.2-60.6h23.8v68.1h9.6v-78.4H-493.6z"/>
	</g>
	<g>
		<path class="st0" d="M-445.7-371.1v-65.1h20.9c40.5,2.6,36.4,53,2.9,54.5h-9.3v-12.1h3.7c13.6,0,20.4-5.7,20.4-17.1
			c0-10.7-6.7-16-20-16h-7.9v55.9H-445.7z"/>
		<path class="st0" d="M-427.9-449.5c13.3,0,23.8,3,31.3,9.1c9,7.2,13.4,17.1,13.4,29.5c0,11.9-3.8,21.6-11.5,29.1
			c-7.7,7.5-17.5,11.3-29.6,11.3c-1.4,0-3.7-0.1-6.9-0.2v-7.8h10.4c41-3.6,34.7-60.8-4.2-60.6h-23.8v68.1h-9.6v-78.4H-427.9z"/>
	</g>
</g>
</svg>
