<svg enable-background="new 0 0 160.2 132.3" viewBox="0 0 160.2 132.3" xmlns="http://www.w3.org/2000/svg"><g fill="#fff"><path d="m160.2 66.2-66.1 66.1-13.6-13.6 43-42.9h-123.5v-19.3h123.5l-43-42.9 13.6-13.6 66.1 66.1z"/><path d="m527.5-16.6-66.1-66.1 13.6-13.6 42.9 43 .1-123.5 19.3.1-.1 123.5 42.9-43 13.6 13.6-66.1 66.1z"/><path d="m-592.8-352.9c2-.3 4.3-.5 6.9-.5 4.7 0 8 1.1 10.2 3.1 2.2 2.1 3.6 5 3.6 9.1s-1.3 7.5-3.6 9.8c-2.4 2.4-6.3 3.6-11.2 3.6-2.3 0-4.3-.1-5.9-.3zm3.2 22.3c.8.1 2 .2 3.3.2 7 0 10.7-3.9 10.7-10.7 0-6-3.3-9.7-10.2-9.7-1.7 0-3 .1-3.8.3z"/><path d="m-546.3-340.9c0 8.7-5.3 13.3-11.7 13.3-6.7 0-11.3-5.2-11.3-12.8 0-8 5-13.3 11.7-13.3 6.8 0 11.3 5.3 11.3 12.8zm-19.6.4c0 5.4 2.9 10.2 8 10.2 5.2 0 8.1-4.8 8.1-10.5 0-5-2.6-10.3-8-10.3-5.4.1-8.1 5.1-8.1 10.6z"/><path d="m-542.1-352.9c1.6-.3 4-.5 6.3-.5 3.5 0 5.7.6 7.3 2.1 1.3 1.1 2 2.8 2 4.8 0 3.3-2.1 5.5-4.8 6.4v.1c1.9.7 3.1 2.5 3.7 5.1.8 3.5 1.4 6 1.9 6.9h-3.4c-.4-.7-1-2.9-1.7-6-.7-3.5-2.1-4.8-5.1-4.9h-3.1v10.9h-3.3v-24.9zm3.2 11.5h3.3c3.5 0 5.7-1.9 5.7-4.8 0-3.3-2.4-4.7-5.8-4.7-1.6 0-2.7.1-3.2.3z"/><path d="m-522.4-332c1.5.9 3.6 1.6 5.8 1.6 3.3 0 5.3-1.8 5.3-4.3 0-2.4-1.3-3.7-4.8-5-4.1-1.5-6.7-3.6-6.7-7.1 0-3.9 3.3-6.9 8.2-6.9 2.6 0 4.5.6 5.6 1.2l-.9 2.7c-.8-.4-2.5-1.2-4.8-1.2-3.4 0-4.8 2.1-4.8 3.8 0 2.4 1.5 3.5 5 4.9 4.3 1.6 6.4 3.7 6.4 7.4 0 3.9-2.9 7.3-8.8 7.3-2.4 0-5.1-.7-6.4-1.6z"/><path d="m-490.5-339.9h-9.8v9.1h10.9v2.7h-14.2v-25.2h13.6v2.7h-10.4v8h9.8v2.7z"/><path d="m-479.4-328v-10.7l-8-14.5h3.7l3.6 7c1 1.9 1.7 3.4 2.5 5.2h.1c.7-1.6 1.6-3.3 2.5-5.2l3.6-7h3.7l-8.5 14.5v10.7z"/><path d="m-456.8-352.9c2-.3 4.3-.5 6.9-.5 4.7 0 8 1.1 10.2 3.1 2.2 2.1 3.6 5 3.6 9.1s-1.3 7.5-3.6 9.8c-2.4 2.4-6.3 3.6-11.2 3.6-2.3 0-4.3-.1-5.9-.3zm3.2 22.3c.8.1 2 .2 3.3.2 7 0 10.7-3.9 10.7-10.7 0-6-3.3-9.7-10.2-9.7-1.7 0-3 .1-3.8.3z"/><path d="m-418.8-339.9h-9.8v9.1h10.9v2.7h-14.2v-25.2h13.6v2.7h-10.4v8h9.8v2.7z"/><path d="m-413.9-332c1.5.9 3.6 1.6 5.8 1.6 3.3 0 5.3-1.8 5.3-4.3 0-2.4-1.3-3.7-4.8-5-4.1-1.5-6.7-3.6-6.7-7.1 0-3.9 3.3-6.9 8.2-6.9 2.6 0 4.5.6 5.6 1.2l-.9 2.7c-.8-.4-2.5-1.2-4.8-1.2-3.4 0-4.8 2.1-4.8 3.8 0 2.4 1.5 3.5 5 4.9 4.3 1.6 6.4 3.7 6.4 7.4 0 3.9-2.9 7.3-8.8 7.3-2.4 0-5.1-.7-6.4-1.6z"/><path d="m-391.8-353.3v25.2h-3.3v-25.2z"/><path d="m-366.9-329.2c-1.5.5-4.3 1.4-7.7 1.4-3.8 0-7-1-9.4-3.3-2.2-2.1-3.5-5.5-3.5-9.4 0-7.5 5.2-13 13.7-13 2.9 0 5.2.6 6.3 1.2l-.8 2.7c-1.3-.6-3-1.1-5.6-1.1-6.1 0-10.1 3.8-10.1 10.1 0 6.4 3.9 10.2 9.7 10.2 2.1 0 3.6-.3 4.3-.7v-7.5h-5.1v-2.6h8.3v12z"/><path d="m-361.9-328v-25.2h3.6l8.1 12.8c1.9 3 3.3 5.6 4.5 8.2h.1c-.3-3.4-.4-6.4-.4-10.4v-10.6h3.1v25.2h-3.3l-8-12.8c-1.8-2.8-3.4-5.7-4.7-8.4h-.1c.2 3.2.3 6.2.3 10.4v10.8z"/><path d="m-337.7-332c1.5.9 3.6 1.6 5.8 1.6 3.3 0 5.3-1.8 5.3-4.3 0-2.4-1.3-3.7-4.8-5-4.1-1.5-6.7-3.6-6.7-7.1 0-3.9 3.3-6.9 8.2-6.9 2.6 0 4.5.6 5.6 1.2l-.9 2.7c-.8-.4-2.5-1.2-4.8-1.2-3.4 0-4.8 2.1-4.8 3.8 0 2.4 1.5 3.5 5 4.9 4.3 1.6 6.4 3.7 6.4 7.4 0 3.9-2.9 7.3-8.8 7.3-2.4 0-5.1-.7-6.4-1.6z"/><path d="m-475.8-371.1v-65.1h-20.9c-40.5 2.6-36.4 53-2.9 54.5h9.3v-12.1h-3.7c-13.6 0-20.4-5.7-20.4-17.1 0-10.7 6.7-16 20-16h7.9v55.9h10.7z"/><path d="m-493.6-449.5c-13.3 0-23.8 3-31.3 9.1-9 7.2-13.4 17.1-13.4 29.5 0 11.9 3.8 21.6 11.5 29.1s17.5 11.3 29.6 11.3c1.4 0 3.7-.1 6.9-.2v-7.8h-10.4c-41-3.6-34.7-60.8 4.2-60.6h23.8v68.1h9.6v-78.4h-30.5z"/><path d="m-445.7-371.1v-65.1h20.9c40.5 2.6 36.4 53 2.9 54.5h-9.3v-12.1h3.7c13.6 0 20.4-5.7 20.4-17.1 0-10.7-6.7-16-20-16h-7.9v55.9h-10.7z"/><path d="m-427.9-449.5c13.3 0 23.8 3 31.3 9.1 9 7.2 13.4 17.1 13.4 29.5 0 11.9-3.8 21.6-11.5 29.1s-17.5 11.3-29.6 11.3c-1.4 0-3.7-.1-6.9-.2v-7.8h10.4c41-3.6 34.7-60.8-4.2-60.6h-23.8v68.1h-9.6v-78.4h30.5z"/></g></svg>