<?xml version="1.0" encoding="utf-8"?>
<!-- Generator: Adobe Illustrator 22.1.0, SVG Export Plug-In . SVG Version: 6.00 Build 0)  -->
<svg version="1.1" id="Layer_1" xmlns="http://www.w3.org/2000/svg" xmlns:xlink="http://www.w3.org/1999/xlink" x="0px" y="0px"
	 viewBox="0 0 269.5 121.9" style="enable-background:new 0 0 269.5 121.9;" xml:space="preserve">
<title>edexAsset 3logo</title>
<g id="Layer_2_1_">
	<g id="Layer_1-2">
		<path d="M0,96.6c2.3-0.3,4.6-0.5,6.9-0.5c4.7,0,8,1,10.2,3.1s3.6,5,3.6,9.1c0.1,3.6-1.2,7.1-3.6,9.8c-2.4,2.3-6.3,3.6-11.2,3.6
			c-2,0-3.9-0.1-5.9-0.3L0,96.6z M3.3,118.9l3.3,0.2c6.9,0,10.7-3.9,10.7-10.7S14,98.6,7.1,98.6c-1.3,0-2.6,0.1-3.8,0.4V118.9z"/>
		<path d="M46.5,108.6c0,8.7-5.3,13.3-11.7,13.3s-11.4-5.2-11.4-12.8s5-13.3,11.7-13.3S46.5,101.1,46.5,108.6z M26.9,109
			c0,5.4,2.9,10.2,8.1,10.2s8-4.7,8-10.5s-2.6-10.2-8-10.2S26.9,103.5,26.9,109z"/>
		<path d="M50.7,96.6c2.1-0.4,4.2-0.6,6.3-0.5c3.4,0,5.7,0.6,7.3,2c1.3,1.3,1.9,3,1.9,4.8c0,2.9-1.9,5.6-4.7,6.4v0.2
			c1.9,0.6,3.1,2.4,3.7,5c0.4,2.4,1.1,4.7,1.9,7h-3.3c-0.8-2-1.3-4-1.7-6.1c-0.8-3.4-2.1-4.7-5.1-4.9h-3v11h-3.3V96.6z M54,108.1
			h3.3c3.5,0,5.7-1.9,5.7-4.8s-2.4-4.7-5.8-4.7c-1.1-0.1-2.2,0-3.2,0.3V108.1z"/>
		<path d="M70.4,117.5c1.8,1.1,3.8,1.7,5.8,1.7c3.4,0,5.3-1.8,5.3-4.4s-1.3-3.7-4.7-5s-6.7-3.6-6.7-7.1s3.3-6.9,8.2-6.9
			c1.9-0.1,3.8,0.4,5.5,1.3l-0.9,2.6c-1.5-0.8-3.1-1.2-4.8-1.2c-3.4,0-4.7,2.1-4.7,3.8s1.5,3.5,5,4.9s6.4,3.7,6.4,7.4
			s-2.8,7.2-8.8,7.2c-2.2,0-4.4-0.5-6.4-1.6L70.4,117.5z"/>
		<path d="M102.4,109.6h-9.8v9.1h10.9v2.8H89.3V96.2h13.6V99H92.6v7.9h9.8V109.6z"/>
		<path d="M113.4,121.5v-10.7l-7.9-14.6h3.7l3.5,7c1,1.9,1.7,3.4,2.5,5.2h0.1c0.7-1.6,1.6-3.3,2.6-5.2l3.6-7h3.7l-8.5,14.5v10.8
			L113.4,121.5z"/>
		<path d="M136,96.6c2.3-0.3,4.6-0.5,6.9-0.5c4.7,0,8,1,10.2,3.1s3.6,5,3.6,9.1c0.1,3.6-1.2,7.1-3.6,9.8c-2.4,2.3-6.3,3.6-11.2,3.6
			c-2,0-3.9-0.1-5.9-0.3V96.6z M139.3,118.9l3.3,0.2c6.9,0,10.7-3.9,10.7-10.7s-3.3-9.8-10.2-9.8c-1.3,0-2.6,0.1-3.8,0.4V118.9z"/>
		<path d="M174,109.6h-9.8v9.1h10.9v2.8h-14.2V96.2h13.7V99h-10.4v7.9h9.8V109.6z"/>
		<path d="M178.9,117.5c1.8,1.1,3.8,1.7,5.8,1.7c3.4,0,5.3-1.8,5.3-4.4s-1.3-3.7-4.7-5s-6.7-3.6-6.7-7.1s3.3-6.9,8.2-6.9
			c1.9-0.1,3.8,0.4,5.5,1.3l-0.9,2.6c-1.5-0.8-3.1-1.2-4.8-1.2c-3.4,0-4.7,2.1-4.7,3.8s1.5,3.5,5,4.9s6.4,3.7,6.4,7.4
			s-2.8,7.2-8.8,7.2c-2.2,0-4.4-0.5-6.4-1.6L178.9,117.5z"/>
		<path d="M201.1,96.2v25.3h-3.3V96.2H201.1z"/>
		<path d="M225.9,120.3c-2.5,0.9-5.1,1.4-7.7,1.4c-3.8,0-7-0.9-9.4-3.3c-2.4-2.5-3.7-5.9-3.6-9.4c0.1-7.5,5.2-13,13.7-13
			c2.2,0,4.3,0.3,6.3,1.1l-0.8,2.7c-1.8-0.8-3.7-1.2-5.6-1.1c-6.1,0-10.1,3.8-10.1,10.2s3.8,10.1,9.7,10.1c1.5,0.1,3-0.1,4.4-0.6
			v-7.6h-5.2v-2.6h8.3L225.9,120.3z"/>
		<path d="M230.9,121.5V96.2h3.6l8.1,12.8c1.6,2.7,3.1,5.4,4.5,8.2h0.1c-0.3-3.4-0.4-6.5-0.4-10.4V96.2h3.1v25.3h-3.3l-8-12.8
			c-1.8-2.7-3.4-5.6-4.8-8.5h-0.1c0.2,3.2,0.3,6.2,0.3,10.4v10.8L230.9,121.5z"/>
		<path d="M255.1,117.5c1.8,1.1,3.8,1.7,5.8,1.7c3.4,0,5.3-1.8,5.3-4.4s-1.3-3.7-4.7-5s-6.7-3.6-6.7-7.1s3.3-6.9,8.2-6.9
			c1.9-0.1,3.8,0.4,5.5,1.3l-0.9,2.6c-1.5-0.8-3.1-1.2-4.8-1.2c-3.4,0-4.7,2.1-4.7,3.8s1.5,3.5,5,4.9s6.4,3.7,6.4,7.4
			s-2.8,7.2-8.8,7.2c-2.2,0-4.4-0.5-6.4-1.6L255.1,117.5z"/>
		<path d="M117,78.4V13.2H96.1c-40.5,2.7-36.3,53.1-2.8,54.5h9.2V55.6h-3.7c-13.6,0-20.4-5.7-20.4-17.1c0-10.7,6.7-16,20-16h7.9
			v55.9H117z"/>
		<path d="M99.2,0C85.9,0,75.5,3,68,9.1s-13.5,17-13.5,29.4S58.3,60.1,66,67.6s17.5,11.2,29.6,11.2c1.4,0,3.7,0,6.9-0.2v-7.8H92.1
			c-41-3.6-34.7-60.8,4.1-60.5H120v68.1h9.6V0H99.2z"/>
		<path d="M147.1,78.4V13.2H168c40.5,2.7,36.4,53.1,2.9,54.5h-9.3V55.6h3.7c13.6,0,20.4-5.7,20.4-17.1c0-10.7-6.6-16-20-16h-7.9
			v55.9H147.1z"/>
		<path d="M164.9,0c13.3,0,23.7,3,31.3,9.1s13.4,17,13.4,29.4s-3.8,21.6-11.5,29.1s-17.5,11.2-29.5,11.2c-1.5,0-3.8,0-7-0.2v-7.8
			h10.5c40.9-3.6,34.6-60.8-4.2-60.5h-23.8v68.1h-9.6V0H164.9z"/>
	</g>
</g>
</svg>
