<svg xmlns="http://www.w3.org/2000/svg" viewBox="0 0 329.49 436.28"><defs><style>.cls-1{fill:#bababa;}.cls-2{fill:#fff;}</style></defs><title>Asset 4</title><g id="Layer_2" data-name="Layer 2"><g id="Layer_1-2" data-name="Layer 1"><path class="cls-1" d="M165.05,18.23l52.41,15.51L319.61,0,306.2,102.43s28.68,46.3,22.39,93.39l-7.77-5.29s1.95,51.48-30.25,86.85l-8.43-17L258.06,306.9l-8.45-25c-28,43.11-45,92.41-45,125.31,0,38.58-78.51,37.06-78.51,5.18,0-30.14-3.92-48.43-46.27-132l-7.81,26-24.34-43-3.78,20.93S8.32,243.49,8.32,189.41L.51,193.75s-6-37.27,22.77-90.19L11.08,0,113.21,33.87Z"/><path d="M217.27,40.34,311.93,8.68l-12.7,92.92s25.85,61.18,23.37,82.11l-7.48-3.82c0,25.75-2.54,57.25-24.27,87l-8.23-23.25L259,292.53l-7.26-25.23C241.33,282.92,197.3,346,197.3,410c0,26.59-65.23,26.59-65.23,0,0-17.41-5.89-75.17-54.42-142.79l-7.59,25.28L46.4,244.73l-8,22.42c-7-11.13-24.07-30.63-24.07-87.32l-7.69,4s-1.44-28.66,23.25-80.4L17.5,8.71l95.17,32.43L165.05,25Z"/><path class="cls-2" d="M74.21,243.65l-6.13,24L45.53,220.93l-8.67,29C7.66,186.53,29.44,125.42,41,103.45l-12.2-82.2,79.34,28.69-51,9.63,31.66,7.71L69.34,94.78c100.06-43.13,120,82.39,83.05,97.12,5.63,12.05,24.51,4,24.51,4,1.48,8.84-9.25,11-14.6,12.32l-.11,57.9,6,8H139.26c-6.7,18.48,1.29,22.05,6.7,27.46l1.88-9.38c29.21,3.72,22,60.05-16.89,29.11L101,252.85l2.3,36.12S81.54,254.17,74.21,243.65Z"/><path d="M136.52,189.3l-30.28,17.8c-.52-1-1-1.86-1.46-2.72-4.91-8.62-11.33-16-18.41-22.91A171.25,171.25,0,0,0,61,161.42L60,160.69v-.42c2.05-.29,4.1-.73,6.16-.83,7.66-.34,14.76,1.82,21.56,5.14a86.44,86.44,0,0,1,16.16,10.68,61.88,61.88,0,0,0,30.46,13.6c.71.1,1.42.12,2.13.18Z"/><path class="cls-2" d="M194,191.3l30.28,17.8c.52-1,1-1.86,1.46-2.72,4.91-8.62,11.33-16,18.41-22.91a171.25,171.25,0,0,1,25.35-20.06l1.06-.72v-.42c-2.05-.29-4.1-.74-6.16-.83-7.66-.34-14.76,1.82-21.56,5.14a86.44,86.44,0,0,0-16.16,10.68,61.88,61.88,0,0,1-30.46,13.6c-.71.1-1.42.12-2.13.18Z"/><path class="cls-2" d="M222.3,47.8,302,21.25l-12.25,79.46s-6.79-19.93-47.95-33.44l32.67-9.74Z"/><path class="cls-2" d="M163,376.19c.3,0,.49,0,.68,0a4.27,4.27,0,0,0,.47-.05,54.75,54.75,0,0,1,.81-5.72,13.62,13.62,0,0,1,5.85-8.47c4.87-3.17,9.93-1.52,11.83,4a18.43,18.43,0,0,1,1,5.38c.16,5.21-.09,10.4-1.93,15.36-2.33,6.28-6.41,11-13.12,12.52-8.16,1.91-14.71-1.13-19.66-7.61-4-5.26-5.59-11.41-5.49-18a20.61,20.61,0,0,1,1.51-8.07c2.32-5.29,7.35-6.76,12.1-3.45A13.94,13.94,0,0,1,163,372.83C163.1,373.9,163,375,163,376.19Z"/><path class="cls-2" d="M177.52,350.8l-4-4.33-4.69,5.82-4.47-5.11-4.46,5.11-5.15-6.08-3.47,4.93c-2.42-1.32-4.14-5.52-3.29-8.14a1.46,1.46,0,0,1,1.06-.68,8.29,8.29,0,0,1,5.92,1.42,1.91,1.91,0,0,0,1.47.21,10.27,10.27,0,0,1,7,.07,1.66,1.66,0,0,0,1.12,0,10,10,0,0,1,7.15-.1,1.37,1.37,0,0,0,1.13-.09c2.2-2.23,4.9-1.93,7.61-1.69C180.78,344.67,179.17,349.3,177.52,350.8Z"/><path class="cls-2" d="M159.73,422.05a18.25,18.25,0,0,1-3.53.65,4,4,0,0,1-3.54-3.53c-.44-2.34.28-4.46,1.22-6.74a14.43,14.43,0,0,0,1.1,3.26,15.46,15.46,0,0,0,2.63,2.82c.48.45,1,.26,1.36-.34.91-1.4,1.89-2.74,2.92-4.21l2.84,4.84,2.47-4.84c.93,1.46,1.82,2.77,2.62,4.13a1,1,0,0,0,1.47.45c2.56-1.1,3.69-3.17,4-5.83.92,2.32,1.62,4.69.79,7.17-.63,1.87-3.68,3-5.57,2.32a1.81,1.81,0,0,0-1.33.06,3.29,3.29,0,0,1-3.41-.06,1.88,1.88,0,0,0-1.25-.07c-.65.16-1.26.49-1.9.69A2.36,2.36,0,0,1,159.73,422.05Z"/><path class="cls-2" d="M189.23,360.32a50.22,50.22,0,0,0,.45-5.1,29,29,0,0,0-.52-5.69,9.52,9.52,0,0,0-5.18-6.68c-1.77-.93-2.07-2.22-.86-3.79a5.66,5.66,0,0,1,5-2.56,2.88,2.88,0,0,1,2,1.05c2.48,4,4.13,8.2,3.86,13a14.3,14.3,0,0,1-4.07,9.35,4.25,4.25,0,0,1-.44.4C189.41,360.32,189.32,360.31,189.23,360.32Z"/><path class="cls-2" d="M139.15,360.41a14.06,14.06,0,0,1-4.62-9c-.6-5.17,1.12-9.76,3.82-14a2.86,2.86,0,0,1,1.92-1,6.05,6.05,0,0,1,5.5,3.37,1.88,1.88,0,0,1-.9,2.74c-4.67,2.29-6.15,6.36-6.21,11.15C138.63,355.85,139,358,139.15,360.41Z"/><path class="cls-2" d="M143.32,396.77c.35,2.35.56,4.36,1,6.33a12,12,0,0,0,1.37,3.29,3.21,3.21,0,0,0,3.3,1.74,1,1,0,0,1,1.22.8,9,9,0,0,1,.59,5.15,4,4,0,0,1-.46,1.22c-1.52,2.29-3.67,3.5-6.11,1.15a10.69,10.69,0,0,1-2.27-3,16.27,16.27,0,0,1-.53-13.46A24.13,24.13,0,0,1,143.32,396.77Z"/><path class="cls-2" d="M185.79,396.86a10.43,10.43,0,0,1,2.92,5.76,17,17,0,0,1-1.54,11.17,7,7,0,0,1-3.77,3.68,3,3,0,0,1-1.92,0,4.64,4.64,0,0,1-3.14-4.63,12.35,12.35,0,0,1,.35-2.6c.27-1.28.57-2.33,2.41-2.18,1.47.12,2.35-1.17,3-2.43a19.07,19.07,0,0,0,1.62-7.31C185.75,397.92,185.76,397.52,185.79,396.86Z"/><path d="M217.27,40.34,311.93,8.68l-12.7,92.92s25.85,61.18,23.37,82.11l-7.48-3.82c0,25.75-2.54,57.25-24.27,87l-8.23-23.25L259,292.53l-7.26-25.23C241.33,282.92,197.3,346,197.3,410c0,26.59-65.23,26.59-65.23,0,0-17.41-5.89-75.17-54.42-142.79l-7.59,25.28L46.4,244.73l-8,22.42c-7-11.13-24.07-30.63-24.07-87.32l-7.69,4s-1.44-28.66,23.25-80.4L17.5,8.71l95.17,32.43L165.05,25Z"/><path class="cls-2" d="M74.21,243.65l-6.13,24L45.53,220.93l-8.67,29C7.66,186.53,29.44,125.42,41,103.45l-12.2-82.2,79.34,28.69-51,9.63,31.66,7.71L69.34,94.78c100.06-43.13,120,82.39,83.05,97.12,5.63,12.05,24.51,4,24.51,4,1.48,8.84-9.25,11-14.6,12.32l-.11,57.9,6,8H139.26c-6.7,18.48,1.29,22.05,6.7,27.46l1.88-9.38c29.21,3.72,22,60.05-16.89,29.11L101,252.85l2.3,36.12S81.54,254.17,74.21,243.65Z"/><path d="M136.52,189.3l-30.28,17.8c-.52-1-1-1.86-1.46-2.72-4.91-8.62-11.33-16-18.41-22.91A171.25,171.25,0,0,0,61,161.42L60,160.69v-.42c2.05-.29,4.1-.73,6.16-.83,7.66-.34,14.76,1.82,21.56,5.14a86.44,86.44,0,0,1,16.16,10.68,61.88,61.88,0,0,0,30.46,13.6c.71.1,1.42.12,2.13.18Z"/><path class="cls-2" d="M194,191.3l30.28,17.8c.52-1,1-1.86,1.46-2.72,4.91-8.62,11.33-16,18.41-22.91a171.25,171.25,0,0,1,25.35-20.06l1.06-.72v-.42c-2.05-.29-4.1-.74-6.16-.83-7.66-.34-14.76,1.82-21.56,5.14a86.44,86.44,0,0,0-16.16,10.68,61.88,61.88,0,0,1-30.46,13.6c-.71.1-1.42.12-2.13.18Z"/><path class="cls-2" d="M222.3,47.8,302,21.25l-12.25,79.46s-6.79-19.93-47.95-33.44l32.67-9.74Z"/><path class="cls-2" d="M163,376.19c.3,0,.49,0,.68,0a4.27,4.27,0,0,0,.47-.05,54.75,54.75,0,0,1,.81-5.72,13.62,13.62,0,0,1,5.85-8.47c4.87-3.17,9.93-1.52,11.83,4a18.43,18.43,0,0,1,1,5.38c.16,5.21-.09,10.4-1.93,15.36-2.33,6.28-6.41,11-13.12,12.52-8.16,1.91-14.71-1.13-19.66-7.61-4-5.26-5.59-11.41-5.49-18a20.61,20.61,0,0,1,1.51-8.07c2.32-5.29,7.35-6.76,12.1-3.45A13.94,13.94,0,0,1,163,372.83C163.1,373.9,163,375,163,376.19Z"/><path class="cls-2" d="M177.52,350.8l-4-4.33-4.69,5.82-4.47-5.11-4.46,5.11-5.15-6.08-3.47,4.93c-2.42-1.32-4.14-5.52-3.29-8.14a1.46,1.46,0,0,1,1.06-.68,8.29,8.29,0,0,1,5.92,1.42,1.91,1.91,0,0,0,1.47.21,10.27,10.27,0,0,1,7,.07,1.66,1.66,0,0,0,1.12,0,10,10,0,0,1,7.15-.1,1.37,1.37,0,0,0,1.13-.09c2.2-2.23,4.9-1.93,7.61-1.69C180.78,344.67,179.17,349.3,177.52,350.8Z"/><path class="cls-2" d="M159.73,422.05a18.25,18.25,0,0,1-3.53.65,4,4,0,0,1-3.54-3.53c-.44-2.34.28-4.46,1.22-6.74a14.43,14.43,0,0,0,1.1,3.26,15.46,15.46,0,0,0,2.63,2.82c.48.45,1,.26,1.36-.34.91-1.4,1.89-2.74,2.92-4.21l2.84,4.84,2.47-4.84c.93,1.46,1.82,2.77,2.62,4.13a1,1,0,0,0,1.47.45c2.56-1.1,3.69-3.17,4-5.83.92,2.32,1.62,4.69.79,7.17-.63,1.87-3.68,3-5.57,2.32a1.81,1.81,0,0,0-1.33.06,3.29,3.29,0,0,1-3.41-.06,1.88,1.88,0,0,0-1.25-.07c-.65.16-1.26.49-1.9.69A2.36,2.36,0,0,1,159.73,422.05Z"/><path class="cls-2" d="M189.23,360.32a50.22,50.22,0,0,0,.45-5.1,29,29,0,0,0-.52-5.69,9.52,9.52,0,0,0-5.18-6.68c-1.77-.93-2.07-2.22-.86-3.79a5.66,5.66,0,0,1,5-2.56,2.88,2.88,0,0,1,2,1.05c2.48,4,4.13,8.2,3.86,13a14.3,14.3,0,0,1-4.07,9.35,4.25,4.25,0,0,1-.44.4C189.41,360.32,189.32,360.31,189.23,360.32Z"/><path class="cls-2" d="M139.15,360.41a14.06,14.06,0,0,1-4.62-9c-.6-5.17,1.12-9.76,3.82-14a2.86,2.86,0,0,1,1.92-1,6.05,6.05,0,0,1,5.5,3.37,1.88,1.88,0,0,1-.9,2.74c-4.67,2.29-6.15,6.36-6.21,11.15C138.63,355.85,139,358,139.15,360.41Z"/><path class="cls-2" d="M143.32,396.77c.35,2.35.56,4.36,1,6.33a12,12,0,0,0,1.37,3.29,3.21,3.21,0,0,0,3.3,1.74,1,1,0,0,1,1.22.8,9,9,0,0,1,.59,5.15,4,4,0,0,1-.46,1.22c-1.52,2.29-3.67,3.5-6.11,1.15a10.69,10.69,0,0,1-2.27-3,16.27,16.27,0,0,1-.53-13.46A24.13,24.13,0,0,1,143.32,396.77Z"/><path class="cls-2" d="M185.79,396.86a10.43,10.43,0,0,1,2.92,5.76,17,17,0,0,1-1.54,11.17,7,7,0,0,1-3.77,3.68,3,3,0,0,1-1.92,0,4.64,4.64,0,0,1-3.14-4.63,12.35,12.35,0,0,1,.35-2.6c.27-1.28.57-2.33,2.41-2.18,1.47.12,2.35-1.17,3-2.43a19.07,19.07,0,0,0,1.62-7.31C185.75,397.92,185.76,397.52,185.79,396.86Z"/></g></g></svg>