<svg enable-background="new 0 0 269.5 121.9" viewBox="0 0 269.5 121.9" xmlns="http://www.w3.org/2000/svg"><g fill="#fff"><path d="m0 96.6c2.3-.3 4.6-.5 6.9-.5 4.7 0 8 1 10.2 3.1s3.6 5 3.6 9.1c.1 3.6-1.2 7.1-3.6 9.8-2.4 2.3-6.3 3.6-11.2 3.6-2 0-3.9-.1-5.9-.3zm3.3 22.3 3.3.2c6.9 0 10.7-3.9 10.7-10.7s-3.3-9.8-10.2-9.8c-1.3 0-2.6.1-3.8.4z"/><path d="m46.5 108.6c0 8.7-5.3 13.3-11.7 13.3s-11.4-5.2-11.4-12.8 5-13.3 11.7-13.3 11.4 5.3 11.4 12.8zm-19.6.4c0 5.4 2.9 10.2 8.1 10.2s8-4.7 8-10.5-2.6-10.2-8-10.2-8.1 5-8.1 10.5z"/><path d="m50.7 96.6c2.1-.4 4.2-.6 6.3-.5 3.4 0 5.7.6 7.3 2 1.3 1.3 1.9 3 1.9 4.8 0 2.9-1.9 5.6-4.7 6.4v.2c1.9.6 3.1 2.4 3.7 5 .4 2.4 1.1 4.7 1.9 7h-3.3c-.8-2-1.3-4-1.7-6.1-.8-3.4-2.1-4.7-5.1-4.9h-3v11h-3.3zm3.3 11.5h3.3c3.5 0 5.7-1.9 5.7-4.8s-2.4-4.7-5.8-4.7c-1.1-.1-2.2 0-3.2.3z"/><path d="m70.4 117.5c1.8 1.1 3.8 1.7 5.8 1.7 3.4 0 5.3-1.8 5.3-4.4s-1.3-3.7-4.7-5-6.7-3.6-6.7-7.1 3.3-6.9 8.2-6.9c1.9-.1 3.8.4 5.5 1.3l-.9 2.6c-1.5-.8-3.1-1.2-4.8-1.2-3.4 0-4.7 2.1-4.7 3.8s1.5 3.5 5 4.9 6.4 3.7 6.4 7.4-2.8 7.2-8.8 7.2c-2.2 0-4.4-.5-6.4-1.6z"/><path d="m102.4 109.6h-9.8v9.1h10.9v2.8h-14.2v-25.3h13.6v2.8h-10.3v7.9h9.8z"/><path d="m113.4 121.5v-10.7l-7.9-14.6h3.7l3.5 7c1 1.9 1.7 3.4 2.5 5.2h.1c.7-1.6 1.6-3.3 2.6-5.2l3.6-7h3.7l-8.5 14.5v10.8z"/><path d="m136 96.6c2.3-.3 4.6-.5 6.9-.5 4.7 0 8 1 10.2 3.1s3.6 5 3.6 9.1c.1 3.6-1.2 7.1-3.6 9.8-2.4 2.3-6.3 3.6-11.2 3.6-2 0-3.9-.1-5.9-.3zm3.3 22.3 3.3.2c6.9 0 10.7-3.9 10.7-10.7s-3.3-9.8-10.2-9.8c-1.3 0-2.6.1-3.8.4z"/><path d="m174 109.6h-9.8v9.1h10.9v2.8h-14.2v-25.3h13.7v2.8h-10.4v7.9h9.8z"/><path d="m178.9 117.5c1.8 1.1 3.8 1.7 5.8 1.7 3.4 0 5.3-1.8 5.3-4.4s-1.3-3.7-4.7-5-6.7-3.6-6.7-7.1 3.3-6.9 8.2-6.9c1.9-.1 3.8.4 5.5 1.3l-.9 2.6c-1.5-.8-3.1-1.2-4.8-1.2-3.4 0-4.7 2.1-4.7 3.8s1.5 3.5 5 4.9 6.4 3.7 6.4 7.4-2.8 7.2-8.8 7.2c-2.2 0-4.4-.5-6.4-1.6z"/><path d="m201.1 96.2v25.3h-3.3v-25.3z"/><path d="m225.9 120.3c-2.5.9-5.1 1.4-7.7 1.4-3.8 0-7-.9-9.4-3.3-2.4-2.5-3.7-5.9-3.6-9.4.1-7.5 5.2-13 13.7-13 2.2 0 4.3.3 6.3 1.1l-.8 2.7c-1.8-.8-3.7-1.2-5.6-1.1-6.1 0-10.1 3.8-10.1 10.2s3.8 10.1 9.7 10.1c1.5.1 3-.1 4.4-.6v-7.6h-5.2v-2.6h8.3z"/><path d="m230.9 121.5v-25.3h3.6l8.1 12.8c1.6 2.7 3.1 5.4 4.5 8.2h.1c-.3-3.4-.4-6.5-.4-10.4v-10.6h3.1v25.3h-3.3l-8-12.8c-1.8-2.7-3.4-5.6-4.8-8.5h-.1c.2 3.2.3 6.2.3 10.4v10.8z"/><path d="m255.1 117.5c1.8 1.1 3.8 1.7 5.8 1.7 3.4 0 5.3-1.8 5.3-4.4s-1.3-3.7-4.7-5-6.7-3.6-6.7-7.1 3.3-6.9 8.2-6.9c1.9-.1 3.8.4 5.5 1.3l-.9 2.6c-1.5-.8-3.1-1.2-4.8-1.2-3.4 0-4.7 2.1-4.7 3.8s1.5 3.5 5 4.9 6.4 3.7 6.4 7.4-2.8 7.2-8.8 7.2c-2.2 0-4.4-.5-6.4-1.6z"/><path d="m117 78.4v-65.2h-20.9c-40.5 2.7-36.3 53.1-2.8 54.5h9.2v-12.1h-3.7c-13.6 0-20.4-5.7-20.4-17.1 0-10.7 6.7-16 20-16h7.9v55.9z"/><path d="m99.2 0c-13.3 0-23.7 3-31.2 9.1s-13.5 17-13.5 29.4 3.8 21.6 11.5 29.1 17.5 11.2 29.6 11.2c1.4 0 3.7 0 6.9-.2v-7.8h-10.4c-41-3.6-34.7-60.8 4.1-60.5h23.8v68.1h9.6v-78.4z"/><path d="m147.1 78.4v-65.2h20.9c40.5 2.7 36.4 53.1 2.9 54.5h-9.3v-12.1h3.7c13.6 0 20.4-5.7 20.4-17.1 0-10.7-6.6-16-20-16h-7.9v55.9z"/><path d="m164.9 0c13.3 0 23.7 3 31.3 9.1s13.4 17 13.4 29.4-3.8 21.6-11.5 29.1-17.5 11.2-29.5 11.2c-1.5 0-3.8 0-7-.2v-7.8h10.5c40.9-3.6 34.6-60.8-4.2-60.5h-23.8v68.1h-9.6v-78.4z"/></g></svg>