<svg xmlns="http://www.w3.org/2000/svg" width="130.4" height="142.8" viewBox="0 0 130.4 142.8"><title>edexAsset 12add-player</title><g id="Layer_2" data-name="Layer 2"><g id="Layer_1-2" data-name="Layer 1"><path d="M120.8,122c-.3,4.7-1.7,8.8-5.6,11.7s-11.2,5.1-17,6.1C86.3,142,74,142.4,62,142.7c-14.4.3-29.5.5-43.5-3-6.1-1.5-13.1-4-16.3-9.8-7-12.5,4.4-23.9,13.9-30.5a88.3,88.3,0,0,1,12-6.8c5.9-2.6,16.6-4,17.1-12.2.2-3.6-1.6-6.5-3.8-9.2s-2.3-2.6-3.4-4a30.7,30.7,0,0,1-2.6-4.3c-4-7.4-6-15.9-7-24.3C25.9,17.9,39.6,0,60.6,0c17.7,0,35,14.6,32.1,38.6-1,8.3-2.8,16.9-6.8,24.3a33.9,33.9,0,0,1-6.1,8c-3.1,3.2-5.1,9.1-3,13.2s8.3,5.5,12.9,7.2c11.7,4.3,29.2,13.1,31,27.2A20.2,20.2,0,0,1,120.8,122Z"/><polygon points="106.9 53.2 115.4 53.2 115.4 68.7 130.4 68.7 130.4 77.5 115.4 77.5 115.4 92.7 106.9 92.7 106.9 77.2 91.7 77.2 91.7 68.5 106.9 68.5 106.9 53.2"/></g></g></svg>