<svg xmlns="http://www.w3.org/2000/svg" width="132.1" height="132" viewBox="0 0 132.1 132"><title>edexAsset 13flag</title><g id="Layer_2" data-name="Layer 2"><g id="Layer_1-2" data-name="Layer 1"><path d="M131.3,76a5,5,0,0,0,.2-1.2l.3-2.1a9.2,9.2,0,0,1,.1-1.6c0-.6.1-1.1.1-1.7a10.9,10.9,0,0,1,.1-1.8V65.9A65.9,65.9,0,0,0,66.2,0H66a66,66,0,0,0,0,132h.3a66,66,0,0,0,64.5-52.8c0-.2.1-.4.1-.6A23.4,23.4,0,0,0,131.3,76Zm-19.5-4.1a2,2,0,0,1-1.7-.1l-2.4-1.6c-11-8.4-21.3-8.6-33.2-.9-4.3,2.7-8.6,5.8-13.1,8.1a16.5,16.5,0,0,1-15,.4v30.8H38.3V69.4c0-.3-.1-.5-.1-.7s-.1-1.2-.1-1.7c.1-2.8.1-5.4.1-8V25.1a5.3,5.3,0,0,1,.3-1.2,1.8,1.8,0,0,1,2.1-.2l3.6,2.4.9.7C54.6,35,65.5,39,78.9,37.4c10.8-1.3,19.2,3.9,24.2,12.4,4,6.5,6.3,14,9.3,21.2C112.6,71.2,112.4,71.7,111.8,71.9Z"/></g></g></svg>