<svg xmlns="http://www.w3.org/2000/svg" width="484" height="484" viewBox="0 0 484 484"><title>edexAsset 2mail</title><g id="Layer_2" data-name="Layer 2"><g id="Layer_1-2" data-name="Layer 1"><path d="M374.9,0H109.1A109,109,0,0,0,0,109.1V374.9A109,109,0,0,0,109.1,484H374.9A109,109,0,0,0,484,374.9V109.1A109,109,0,0,0,374.9,0ZM396,304.5a91.7,91.7,0,0,1-90.9,91.4c-42.4.3-84.8.4-127.2-.1-26.8-.3-49.4-11.1-67.4-31.1-12.4-13.9-18.9-30.4-22.7-48.3V167.2c3.8-18.8,11-35.9,24.4-50.1,15.4-16.5,34.5-25.4,56.4-29.3H315.1a19.7,19.7,0,0,0,3.2,1c46.3,8.3,77.5,45,77.7,91.9C396.2,222,396.3,263.3,396,304.5Z"/><path d="M302.5,119.3q-61.2-.3-122.5,0c-34.9.2-60.7,26.1-60.8,61.1q-.2,61.4.1,122.5c.1,35.9,25.8,61.4,61.8,61.6,20.2.1,40.5,0,60.8,0s40.6.2,60.9,0c35.5-.3,61.3-25.8,61.6-61.2q.3-61.2-.1-122.5C364.1,144.8,338.5,119.4,302.5,119.3ZM240.4,321.9c-44.6-1.2-80-38.4-78.6-82.5s38.6-78.9,81.4-77.6c44.4,1.4,79.7,37.8,78.6,81.1S283.9,323.1,240.4,321.9ZM321.7,182a19,19,0,0,1-19.2-19c0-10.9,8-19.2,18.8-19.3A19.1,19.1,0,0,1,341,162.9C341.1,173.3,332.4,181.9,321.7,182Z"/><path d="M241.8,193.5a48,48,0,0,0-48.3,48.1c.1,26.9,21.4,48.5,47.9,48.6a48.4,48.4,0,1,0,.4-96.7Z"/></g></g></svg>