<?xml version="1.0" encoding="utf-8"?>
<!-- Generator: Adobe Illustrator 22.1.0, SVG Export Plug-In . SVG Version: 6.00 Build 0)  -->
<svg version="1.1" id="Layer_1" xmlns="http://www.w3.org/2000/svg" xmlns:xlink="http://www.w3.org/1999/xlink" x="0px" y="0px"
	 viewBox="0 0 484 484" style="enable-background:new 0 0 484 484;" xml:space="preserve">
<style type="text/css">
	.st0{fill:#FFFFFF;}
</style>
<title>edexAsset 2mail</title>
<g id="Layer_2_1_">
	<g id="Layer_1-2">
		<path class="st0" d="M374.9,0H109.1C48.9-0.1,0.1,48.7,0,108.9c0,0.1,0,0.1,0,0.2v265.8c-0.1,60.2,48.7,109,108.9,109.1
			c0.1,0,0.1,0,0.2,0h265.8c60.2,0.1,109-48.7,109.1-108.9c0-0.1,0-0.1,0-0.2V109.1C484.1,48.9,435.3,0.1,375.1,0
			C375,0,375,0,374.9,0z M396,304.5c-0.2,50.2-40.7,91-90.9,91.4c-42.4,0.3-84.8,0.4-127.2-0.1c-26.8-0.3-49.4-11.1-67.4-31.1
			c-12.4-13.9-18.9-30.4-22.7-48.3V167.2c3.8-18.8,11-35.9,24.4-50.1c15.4-16.5,34.5-25.4,56.4-29.3h146.5c1,0.4,2.1,0.8,3.2,1
			c46.3,8.3,77.5,45,77.7,91.9C396.2,222,396.3,263.3,396,304.5z"/>
		<path class="st0" d="M302.5,119.3c-40.8-0.2-81.6-0.2-122.5,0c-34.9,0.2-60.7,26.1-60.8,61.1c-0.1,40.9-0.1,81.8,0.1,122.5
			c0.1,35.9,25.8,61.4,61.8,61.6c20.2,0.1,40.5,0,60.8,0s40.6,0.2,60.9,0c35.5-0.3,61.3-25.8,61.6-61.2c0.2-40.8,0.2-81.6-0.1-122.5
			C364.1,144.8,338.5,119.4,302.5,119.3z M240.4,321.9c-44.6-1.2-80-38.4-78.6-82.5s38.6-78.9,81.4-77.6
			c44.4,1.4,79.7,37.8,78.6,81.1S283.9,323.1,240.4,321.9z M321.7,182c-10.5,0.1-19.1-8.3-19.2-18.8c0-0.1,0-0.1,0-0.2
			c0-10.9,8-19.2,18.8-19.3c10.5-0.3,19.4,7.9,19.7,18.5c0,0.2,0,0.5,0,0.7C341.1,173.3,332.4,181.9,321.7,182z"/>
		<path class="st0" d="M241.8,193.5c-26.5-0.2-48.1,21.2-48.3,47.7c0,0.1,0,0.3,0,0.4c0.1,26.9,21.4,48.5,47.9,48.6
			c26.7,1.3,49.4-19.3,50.7-46c1.3-26.7-19.3-49.4-46-50.7C244.7,193.4,243.3,193.4,241.8,193.5L241.8,193.5z"/>
	</g>
</g>
</svg>
