<?xml version="1.0" encoding="utf-8"?>
<!-- Generator: Adobe Illustrator 23.0.3, SVG Export Plug-In . SVG Version: 6.00 Build 0)  -->
<svg version="1.1" id="Layer_1" xmlns="http://www.w3.org/2000/svg" xmlns:xlink="http://www.w3.org/1999/xlink" x="0px" y="0px"
	 viewBox="0 0 484 484" style="enable-background:new 0 0 484 484;" xml:space="preserve">
<style type="text/css">
	.st0{fill:#FFFFFF;}
</style>
<title>edexAsset 3vimeo</title>
<g>
	<g>
	</g>
	<g>
	</g>
	<g>
	</g>
	<g>
	</g>
	<g>
	</g>
	<g>
	</g>
	<g>
	</g>
	<g>
	</g>
	<g>
	</g>
	<g>
	</g>
	<g>
	</g>
	<g>
	</g>
	<g>
	</g>
	<g>
	</g>
	<g>
	</g>
</g>
<g>
	<path class="st0" d="M268.4,210.3v-0.8c-0.2,0.2-0.4,0.5-0.5,0.8H268.4z"/>
	<path class="st0" d="M374.6,0H109.4C49,0,0,49,0,109.4v265.3C0,435,49,484,109.4,484h265.3C435,484,484,435,484,374.6V109.4
		C484,49,435,0,374.6,0z M147.9,411.2H70.4V176.2h77.5V411.2z M109.2,144.1h-0.5c-26,0-42.9-18.1-42.9-40.6
		c0-23.1,17.4-40.6,43.9-40.6c26.5,0,42.8,17.5,43.4,40.6C153,126.1,136.2,144.1,109.2,144.1z M427.6,411.2H350V285.5
		c0-31.6-11.2-53.2-39.3-53.2c-21.4,0-34.2,14.5-39.8,28.6c-2,5-2.6,12-2.6,19.1v131.3h-77.6c0,0,1-213,0-235.1h77.6v33.3
		c10.3-16,28.7-38.8,69.9-38.8c51,0,89.3,33.6,89.3,105.8V411.2z"/>
</g>
</svg>
