<svg id="Layer_1" data-name="Layer 1" xmlns="http://www.w3.org/2000/svg" xmlns:xlink="http://www.w3.org/1999/xlink" width="3.6in" height="3.1in" viewBox="0 0 260 226.8"><defs><clipPath id="clip-path"><rect x="50.9" y="10.4" width="159.6" height="159.56" fill="none"/></clipPath></defs><title>edexArtboard 1logo</title><g clip-path="url(#clip-path)"><path d="M211.3,170.8H51.7V11.2H211.3Zm-14.8-14.5V25.5h-15V140.8h-70V83.3h4.8c5.8,0,11.7.1,17.5-.1,1,0,2.9-1.3,2.9-2,.2-8.6.2-17.1.2-25.8H96.6V156.3ZM166.2,126V25.3H66.6V155.9H81.8V40.8h69.5V98.4H126.4V126Z" fill="#fff"/><path d="M20,205.8h3.6v-9.6h-6v18H12.8V191.4H28.4v19.2H20Z" fill="#fff"/><path d="M37.4,191.4H53v19.2H37.4v-12h8.4v4.8H42.2v2.4h6v-9.6H37.4Z" fill="#fff"/><path d="M62,191.4h4.8v14.4h6V191.4h4.8v19.2H62Z" fill="#fff"/><path d="M91.4,187.8v22.8H86.6V187.8Z" fill="#fff"/><path d="M119.6,191.4v4.8H116v9.6h6v-18h4.8v22.8H111.2V191.4Z" fill="#fff"/><path d="M135.8,191.4h15.6v19.2H135.8Zm4.8,14.4h6v-9.6h-6Z" fill="#fff"/><path d="M176,191.4v8.4h-4.8v-3.6h-6v14.4h-4.8V191.4Z" fill="#fff"/><path d="M200.6,191.4v4.8H189.8v2.4h10.8v12H185v-4.8h10.8v-2.4H185v-12Z" fill="#fff"/><path d="M216.8,198.6h3.6v-2.4h-6v9.6h10.8v4.8H209.6V191.4h15.6v12h-8.4Z" fill="#fff"/><path d="M234.2,205.8H245V191.4h4.8v19.2H234.2Zm0-14.4H239v7.2h3.6v4.8h-8.4Z" fill="#fff"/></g><path d="M31.2,201.2h3.3v-8.6H29.1v16.2H24.7V188.3H38.8v17.3H31.2Z" fill="#fff"/><path d="M46.9,188.3h14v17.3h-14V194.8h7.5v4.3H51.2v2.1h5.4v-8.6H46.9Z" fill="#fff"/><path d="M69,188.3h4.3v12.9h5.4V188.3h4.4v17.3H69Z" fill="#fff"/><path d="M95.5,185v20.6H91.2V185Z" fill="#fff"/><path d="M120.9,188.3v4.3h-3.2v8.6h5.4V185h4.3v20.6H113.3V188.3Z" fill="#fff"/><path d="M135.5,188.3h14v17.3h-14Zm4.3,12.9h5.4v-8.6h-5.4Z" fill="#fff"/><path d="M171.7,188.3v7.5h-4.4v-3.2h-5.4v13h-4.3V188.3Z" fill="#fff"/><path d="M193.8,188.3v4.3h-9.7v2.2h9.7v10.8h-14v-4.4h9.7v-2.1h-9.7V188.3Z" fill="#fff"/><path d="M208.4,194.8h3.2v-2.2h-5.4v8.6h9.7v4.4h-14V188.3h14v10.8h-7.5Z" fill="#fff"/><path d="M224,201.2h9.8V188.3h4.3v17.3H224Zm0-12.9h4.4v6.5h3.2v4.3H224Z" fill="#fff"/></svg>