<svg id="Layer_1" data-name="Layer 1" xmlns="http://www.w3.org/2000/svg" width="3.7in" height="1.7in" viewBox="0 0 269.5 121.9"><title>edexArtboard 1</title><g id="Layer_2" data-name="Layer 2"><g id="Layer_1-2" data-name="Layer 1-2"><path d="M0,96.6a53.4,53.4,0,0,1,6.9-.5c4.7,0,8,1,10.2,3.1a11.9,11.9,0,0,1,3.6,9.1,14.2,14.2,0,0,1-3.6,9.8c-2.4,2.3-6.3,3.6-11.2,3.6a58.3,58.3,0,0,1-5.9-.3Zm3.3,22.3,3.3.2c6.9,0,10.7-3.9,10.7-10.7S14,98.6,7.1,98.6a15.8,15.8,0,0,0-3.8.4Z" fill="#fff"/><path d="M46.5,108.6c0,8.7-5.3,13.3-11.7,13.3s-11.4-5.2-11.4-12.8,5-13.3,11.7-13.3S46.5,101.1,46.5,108.6Zm-19.6.4c0,5.4,2.9,10.2,8.1,10.2s8-4.7,8-10.5-2.6-10.2-8-10.2S26.9,103.5,26.9,109Z" fill="#fff"/><path d="M50.7,96.6a26.8,26.8,0,0,1,6.3-.5c3.4,0,5.7.6,7.3,2a6.8,6.8,0,0,1-2.8,11.2v.2c1.9.6,3.1,2.4,3.7,5a42.6,42.6,0,0,0,1.9,7H63.8a32.5,32.5,0,0,1-1.7-6.1c-.8-3.4-2.1-4.7-5.1-4.9H54v11H50.7ZM54,108.1h3.3c3.5,0,5.7-1.9,5.7-4.8s-2.4-4.7-5.8-4.7a8.5,8.5,0,0,0-3.2.3Z" fill="#fff"/><path d="M70.4,117.5a11.2,11.2,0,0,0,5.8,1.7c3.4,0,5.3-1.8,5.3-4.4s-1.3-3.7-4.7-5-6.7-3.6-6.7-7.1,3.3-6.9,8.2-6.9a10.6,10.6,0,0,1,5.5,1.3l-.9,2.6a10.1,10.1,0,0,0-4.8-1.2c-3.4,0-4.7,2.1-4.7,3.8s1.5,3.5,5,4.9,6.4,3.7,6.4,7.4-2.8,7.2-8.8,7.2a13.2,13.2,0,0,1-6.4-1.6Z" fill="#fff"/><path d="M102.4,109.6H92.6v9.1h10.9v2.8H89.3V96.2h13.6V99H92.6v7.9h9.8Z" fill="#fff"/><path d="M113.4,121.5V110.8l-7.9-14.6h3.7l3.5,7c1,1.9,1.7,3.4,2.5,5.2h.1c.7-1.6,1.6-3.3,2.6-5.2l3.6-7h3.7l-8.5,14.5v10.8Z" fill="#fff"/><path d="M136,96.6a53.4,53.4,0,0,1,6.9-.5c4.7,0,8,1,10.2,3.1a11.9,11.9,0,0,1,3.6,9.1,14.2,14.2,0,0,1-3.6,9.8c-2.4,2.3-6.3,3.6-11.2,3.6a58.3,58.3,0,0,1-5.9-.3Zm3.3,22.3,3.3.2c6.9,0,10.7-3.9,10.7-10.7s-3.3-9.8-10.2-9.8a15.8,15.8,0,0,0-3.8.4Z" fill="#fff"/><path d="M174,109.6h-9.8v9.1h10.9v2.8H160.9V96.2h13.7V99H164.2v7.9H174Z" fill="#fff"/><path d="M178.9,117.5a11.2,11.2,0,0,0,5.8,1.7c3.4,0,5.3-1.8,5.3-4.4s-1.3-3.7-4.7-5-6.7-3.6-6.7-7.1,3.3-6.9,8.2-6.9a10.6,10.6,0,0,1,5.5,1.3l-.9,2.6a10.1,10.1,0,0,0-4.8-1.2c-3.4,0-4.7,2.1-4.7,3.8s1.5,3.5,5,4.9,6.4,3.7,6.4,7.4-2.8,7.2-8.8,7.2a13.2,13.2,0,0,1-6.4-1.6Z" fill="#fff"/><path d="M201.1,96.2v25.3h-3.3V96.2Z" fill="#fff"/><path d="M225.9,120.3a22.8,22.8,0,0,1-7.7,1.4c-3.8,0-7-.9-9.4-3.3a13,13,0,0,1-3.6-9.4c.1-7.5,5.2-13,13.7-13a16.7,16.7,0,0,1,6.3,1.1l-.8,2.7a12.2,12.2,0,0,0-5.6-1.1c-6.1,0-10.1,3.8-10.1,10.2s3.8,10.1,9.7,10.1a10.9,10.9,0,0,0,4.4-.6v-7.6h-5.2v-2.6h8.3Z" fill="#fff"/><path d="M230.9,121.5V96.2h3.6l8.1,12.8c1.6,2.7,3.1,5.4,4.5,8.2h.1c-.3-3.4-.4-6.5-.4-10.4V96.2h3.1v25.3h-3.3l-8-12.8a71.2,71.2,0,0,1-4.8-8.5h-.1c.2,3.2.3,6.2.3,10.4v10.8Z" fill="#fff"/><path d="M255.1,117.5a11.2,11.2,0,0,0,5.8,1.7c3.4,0,5.3-1.8,5.3-4.4s-1.3-3.7-4.7-5-6.7-3.6-6.7-7.1,3.3-6.9,8.2-6.9a10.6,10.6,0,0,1,5.5,1.3l-.9,2.6a10.1,10.1,0,0,0-4.8-1.2c-3.4,0-4.7,2.1-4.7,3.8s1.5,3.5,5,4.9,6.4,3.7,6.4,7.4-2.8,7.2-8.8,7.2a13.2,13.2,0,0,1-6.4-1.6Z" fill="#fff"/><path d="M117,78.4V13.2H96.1c-40.5,2.7-36.3,53.1-2.8,54.5h9.2V55.6H98.8q-20.4,0-20.4-17.1c0-10.7,6.7-16,20-16h7.9V78.4Z" fill="#fff"/><path d="M99.2,0C85.9,0,75.5,3,68,9.1s-13.5,17-13.5,29.4S58.3,60.1,66,67.6,83.5,78.8,95.6,78.8c1.4,0,3.7,0,6.9-.2V70.8H92.1c-41-3.6-34.7-60.8,4.1-60.5H120V78.4h9.6V0Z" fill="#fff"/><path d="M147.1,78.4V13.2H168c40.5,2.7,36.4,53.1,2.9,54.5h-9.3V55.6h3.7q20.4,0,20.4-17.1c0-10.7-6.6-16-20-16h-7.9V78.4Z" fill="#fff"/><path d="M164.9,0c13.3,0,23.7,3,31.3,9.1s13.4,17,13.4,29.4-3.8,21.6-11.5,29.1-17.5,11.2-29.5,11.2c-1.5,0-3.8,0-7-.2V70.8h10.5c40.9-3.6,34.6-60.8-4.2-60.5H144.1V78.4h-9.6V0Z" fill="#fff"/></g></g></svg>