<svg xmlns="http://www.w3.org/2000/svg" width="484" height="484" viewBox="0 0 484 484"><title>edexAsset 1insta</title><g id="Layer_2" data-name="Layer 2"><g id="Layer_1-2" data-name="Layer 1"><rect width="484" height="484" rx="109.1" ry="109.1"/><path d="M242.1,130.3c43.8,0,87.6.1,131.5-.1a27.4,27.4,0,0,1,27.3,21.7,33.3,33.3,0,0,1,.7,7q.1,83.1,0,166.3c0,14.4-9,25.6-22.6,28.2a37.6,37.6,0,0,1-5.8.3q-131.4,0-262.7.1c-14.3,0-25.7-10.1-27.7-23a41.7,41.7,0,0,1-.4-6.1c0-55.2.1-110.3,0-165.5-.1-14.9,9.3-24.7,18.2-27.4a37.4,37.4,0,0,1,10.5-1.4Zm125.5,20.3H116.5a10.8,10.8,0,0,0,1.1,1.1l103.8,95a155.3,155.3,0,0,0,13.7,10.5c4.5,3.2,9.3,3.1,13.9,0a106.3,106.3,0,0,0,11.4-8.6q49.4-44.8,98.5-90Zm-250,182.3.2.5H366.9L284.7,258c-4.4,4-8.7,7.7-12.9,11.7-16,15.3-44.3,15.4-60.5-.8-3.8-3.8-7.9-7.2-12-10.9ZM381.3,168.5l-82.2,74.4,82.2,76.6ZM184.8,242.9l-82-74.2V319.3Z" fill="#fff" stroke="#fff" stroke-miterlimit="10" stroke-width="8"/></g></g></svg>