<svg xmlns="http://www.w3.org/2000/svg" width="123.3" height="137.3" viewBox="0 0 123.3 137.3"><title>edexAsset 1flag</title><g id="Layer_2" data-name="Layer 2"><g id="Layer_1-2" data-name="Layer 1"><polygon points="29.5 103.2 32.6 112.2 83.8 51.8 71.3 41.2 20.1 101.6 29.5 103.2"/><rect x="81" y="7.8" width="11.1" height="58.44" transform="translate(2.4 79.2) rotate(-49.7)"/><path d="M119.7,43.1A15,15,0,0,0,118,21.9L96.3,3.6A15,15,0,0,0,75.1,5.3L72.7,8.2,117.3,46Z"/><path d="M5.7,137.2l44.1-10.4,52.1-59.7L91.6,58.4,41.3,118.5l-24.4,7-6-5.1,2.9-26.1L64,35l-9.1-7.7L4.2,87.1,0,132.3A4.9,4.9,0,0,0,5.7,137.2Z"/></g></g></svg>