<svg xmlns="http://www.w3.org/2000/svg" width="134.4" height="133.4" viewBox="0 0 134.4 133.4"><title>edexAsset 7flag</title><g id="Layer_2" data-name="Layer 2"><g id="Layer_1-2" data-name="Layer 1"><g id="Layer_2-2" data-name="Layer 2"><g id="Layer_1-2-2" data-name="Layer 1-2"><rect y="120.2" width="134.4" height="13.17"/><line x1="130.4" y1="25.9" x2="104.4" y2="4.8"/><path d="M113.6,4.2l16.9,14.4a10.7,10.7,0,0,1,1.2,15l-2.2,2.5h0L96.5,8h0l2.2-2.6a10.5,10.5,0,0,1,14.9-1.2Z"/><rect x="102.5" y="7.6" width="8.3" height="43.37" transform="translate(15.1 91.3) rotate(-49.5)"/><polygon points="66.3 85.1 104.5 40.4 95.2 32.5 57.1 77.1 64 78.4 66.3 85.1"/><path d="M117.9,51.8l-39,44.1-32.6,7.6a3.6,3.6,0,0,1-4.2-3,1.3,1.3,0,0,1-.1-.6l3.3-33.6L83.1,22.1l6.8,5.8L52.4,71.7,50.1,91.1l4.5,3.7,18.1-5.1,37.6-44.4Z"/><path d="M.1,0H60.6a6.7,6.7,0,0,1,6.7,6.7h0a6.7,6.7,0,0,1-6.7,6.6H.1V0Z"/><rect width="13.4" height="133.35"/><path d="M127.9,60.1h0a6.5,6.5,0,0,1,6.5,6.5v66.7h-13V66.7a6.4,6.4,0,0,1,6.3-6.6Z"/></g></g></g></g></svg>