<svg xmlns="http://www.w3.org/2000/svg" width="484" height="484" viewBox="0 0 484 484"><title>edexAsset 3vimeo</title><g id="Layer_2" data-name="Layer 2"><g id="Layer_1-2" data-name="Layer 1"><path d="M374.9,0H109.1A109,109,0,0,0,0,109.1V374.9A109,109,0,0,0,109.1,484H374.9A109,109,0,0,0,484,374.9V109.1A109,109,0,0,0,374.9,0Zm-2.2,227c-27.2,47.9-59,92.3-101.8,127.7a114.6,114.6,0,0,1-30,17.7c-22.4,9.3-39.1,2.8-52-17.8-9.4-15-14.5-31.5-19.1-48.3-7.2-26.8-14.2-53.6-22.4-80A146.3,146.3,0,0,0,131.9,193c-5.9-9.4-10.1-9.3-19.7-3.6-5.3,3.1-10.5,6.5-15.6,9.7-1.2-.7-1.4-.8-1.5-1-15.7-21.3-16.7-13.5,2.3-30.4s37.5-31.5,56.7-46.7a36.7,36.7,0,0,1,25.8-7.7c17.1,1.4,26.4,12.5,31.1,27.1s6.6,28.9,9.6,43.5c4.7,22.6,8.8,45.4,13.9,67.9,1.8,7.6,5.4,15.1,9.1,22.1s9.6,8.4,16.5,3.2a39.1,39.1,0,0,0,6.9-6.6c13.2-16.1,24.3-33.5,31.6-52.9,2.8-7.6,3.3-16.5,3.3-24.8s-6.8-15.4-16-15.3-17.2,1.4-25.5,2.1c11.1-41.4,41.4-73.1,87.1-69.9,30,2.1,39.7,20.9,42.4,40.9C393.5,178.1,386.1,203.5,372.7,227Z"/></g></g></svg>