<svg xmlns="http://www.w3.org/2000/svg" width="7in" height="7in" viewBox="0 0 504 504"><title>edexArtboard 1logo</title><g id="logo"><path d="M393.5,136.3,406.9,33.9,304.7,67.6,252.3,52.1,200.5,67.7,98.3,33.9l12.2,103.5c-28.7,53-22.7,90.2-22.7,90.2l7.8-4.3c0,54.1,35.6,94.9,35.6,94.9l3.7-20.9,24.4,43,7.8-26c42.3,83.5,46.3,101.8,46.3,132,0,31.8,78.5,33.4,78.5-5.2,0-32.9,17-82.2,45-125.3l8.4,25,24.1-46.5,8.4,17c32.2-35.4,30.3-86.9,30.3-86.9l7.7,5.3C422.1,182.6,393.5,136.3,393.5,136.3Zm-35.7,60.3-1,.7a176.1,176.1,0,0,0-25.4,20c-7.1,7-13.5,14.3-18.4,23-.5.8-.9,1.7-1.5,2.7l-30.2-17.8v-.3l2.2-.2a60.6,60.6,0,0,0,30.4-13.6,86.9,86.9,0,0,1,16.2-10.6c6.8-3.4,13.9-5.5,21.6-5.2,2,.1,4.1.6,6.1.8Z" fill="#bababa"/><path d="M386.5,134.3l12.7-92.9L304.6,73,252.4,57.7,200,73.8,104.8,41.4l12.4,94.7c-24.7,51.8-23.3,80.4-23.3,80.4l7.7-4c0,56.7,17.1,76.2,24.1,87.3l8-22.4,23.7,47.8,7.6-25.3c48.5,67.6,54.4,125.4,54.4,142.8,0,26.6,65.2,26.6,65.2,0,0-64,44-127.1,54.4-142.7l7.3,25.2,23.6-48.9,8.3,23.3c21.7-29.8,24.2-61.3,24.2-87l7.5,3.8C412.4,195.5,386.5,134.3,386.5,134.3Zm-28.6,61.1-1.1.7a169.2,169.2,0,0,0-25.3,20.1c-7.1,6.9-13.5,14.2-18.5,22.9l-1.4,2.7L281.3,224v-.3l2.1-.2A60.9,60.9,0,0,0,314,209.9a89.5,89.5,0,0,1,16.1-10.6c6.8-3.4,13.9-5.5,21.6-5.2,2.1.1,4.1.6,6.2.9Z"/><path d="M160.7,272.8l-6,23.7-22.3-46.1L123.8,279c-28.8-62.6-7.3-123,4.1-144.7l-12-81.2,78.3,28.4L143.9,91l31.2,7.6-19.2,27.2c98.9-42.7,118.6,81.3,82.1,95.9,5.5,11.9,24.2,3.9,24.2,3.9,1.4,8.8-9.2,10.9-14.4,12.2l-.2,57.2,6,7.9H225c-6.6,18.3,1.3,21.8,6.6,27.2l1.9-9.3c28.8,3.7,21.7,59.3-16.7,28.7l-29.6-67.6,2.3,35.7S168,283.2,160.7,272.8Z" fill="#fff"/><path d="M248.5,406h1.1a55.8,55.8,0,0,1,.8-5.7,13.9,13.9,0,0,1,5.9-8.5c4.8-3.2,9.9-1.5,11.8,4a19.8,19.8,0,0,1,1,5.4c.2,5.2-.1,10.4-1.9,15.3s-6.4,11-13.2,12.6-14.7-1.2-19.6-7.6a28.4,28.4,0,0,1-5.5-18,22.4,22.4,0,0,1,1.5-8.1c2.3-5.3,7.4-6.8,12.1-3.5a14.5,14.5,0,0,1,6,10.8C248.6,403.8,248.5,404.9,248.5,406Z" fill="#fff"/><path d="M263,380.7l-4-4.4-4.7,5.8-4.5-5.1-4.4,5.1-5.2-6-3.5,4.9c-2.4-1.3-4.1-5.5-3.3-8.1a1.5,1.5,0,0,1,1.1-.7,8.2,8.2,0,0,1,5.9,1.4,2,2,0,0,0,1.5.2,9.9,9.9,0,0,1,7,.1,2,2,0,0,0,1.1,0,9.9,9.9,0,0,1,7.2-.1,1.4,1.4,0,0,0,1.1-.1c2.2-2.2,4.9-1.9,7.6-1.7C266.2,374.5,264.6,379.2,263,380.7Z" fill="#fff"/><path d="M245.2,451.9a21.7,21.7,0,0,1-3.5.7,4,4,0,0,1-3.6-3.6c-.4-2.3.3-4.4,1.2-6.7a17.3,17.3,0,0,0,1.1,3.2,18.6,18.6,0,0,0,2.7,2.9c.4.4,1,.2,1.3-.4l2.9-4.2,2.9,4.9,2.5-4.9,2.6,4.1a1,1,0,0,0,1.3.6h.1c2.6-1.1,3.7-3.2,4-5.8,1,2.3,1.7,4.7.8,7.1s-3.6,3-5.5,2.4a1.7,1.7,0,0,0-1.4,0,3.4,3.4,0,0,1-3.4,0,1.7,1.7,0,0,0-1.2-.1,10.7,10.7,0,0,0-1.9.7A2.5,2.5,0,0,1,245.2,451.9Z" fill="#fff"/><path d="M274.7,390.2a43.8,43.8,0,0,0,.4-5.1,22,22,0,0,0-.5-5.7,9.6,9.6,0,0,0-5.2-6.7c-1.7-.9-2-2.2-.8-3.8a5.6,5.6,0,0,1,5-2.5,2.6,2.6,0,0,1,2,1c2.5,4,4.1,8.2,3.8,13a14.6,14.6,0,0,1-4,9.4l-.5.4Z" fill="#fff"/><path d="M224.6,390.3a14.6,14.6,0,0,1-4.6-9c-.6-5.2,1.1-9.8,3.8-14a2.6,2.6,0,0,1,1.9-1,5.9,5.9,0,0,1,5.5,3.3,1.8,1.8,0,0,1-.6,2.6l-.3.2c-4.6,2.3-6.1,6.3-6.2,11.1C224.1,385.7,224.5,387.9,224.6,390.3Z" fill="#fff"/><path d="M228.8,426.6a53.9,53.9,0,0,0,1,6.4,12.7,12.7,0,0,0,1.3,3.2,3.2,3.2,0,0,0,3.3,1.8,1.1,1.1,0,0,1,1.3.7h0a8.9,8.9,0,0,1,.6,5.1,5,5,0,0,1-.5,1.3c-1.5,2.2-3.7,3.5-6.1,1.1a11.4,11.4,0,0,1-2.3-3,16.3,16.3,0,0,1-.5-13.5A26.9,26.9,0,0,1,228.8,426.6Z" fill="#fff"/><path d="M271.2,426.7a10.8,10.8,0,0,1,3,5.8,17,17,0,0,1-1.6,11.1,7,7,0,0,1-3.7,3.7,3.4,3.4,0,0,1-2,0,4.6,4.6,0,0,1-3.1-4.6,11.5,11.5,0,0,1,.3-2.6c.3-1.3.6-2.3,2.5-2.2s2.3-1.2,3-2.4a20.4,20.4,0,0,0,1.6-7.3Z" fill="#fff"/><path d="M307,77.3l78.8-26.2-12.1,78.5s-6.7-19.7-47.4-33L358.6,87Z" fill="#fff"/><path d="M224.1,221.2,193.9,239c-.6-1-1-1.9-1.5-2.7-4.9-8.7-11.3-16-18.4-23a176.1,176.1,0,0,0-25.4-20l-1-.7v-.5c2.1-.2,4.1-.7,6.2-.8,7.6-.3,14.7,1.8,21.5,5.2a86.9,86.9,0,0,1,16.2,10.6A60.5,60.5,0,0,0,222,220.7l2.1.2Z"/></g><g id="eye"><path d="M351.7,194.1c-7.7-.3-14.8,1.8-21.6,5.2a86.9,86.9,0,0,0-16.2,10.6,60.6,60.6,0,0,1-30.4,13.6l-2.2.2v.3l30.2,17.8,1.5-2.7c4.9-8.7,11.3-16,18.4-22.9a170,170,0,0,1,25.4-20.1l1-.7V195C355.8,194.7,353.7,194.2,351.7,194.1Z" fill="#fff"/></g></svg>